<?xml version="1.0" encoding="utf-8"?>
<!-- Generator: Adobe Illustrator 25.4.1, SVG Export Plug-In . SVG Version: 6.00 Build 0)  -->
<svg version="1.1" id="Calque_2" xmlns="http://www.w3.org/2000/svg" xmlns:xlink="http://www.w3.org/1999/xlink" x="0px" y="0px"
	 viewBox="0 0 387.06 395" style="enable-background:new 0 0 387.06 395;" xml:space="preserve">
<style type="text/css">
	.st0{fill:#F1F0F1;}
</style>
<circle class="st0" cx="192" cy="144" r="57"/>
<path class="st0" d="M113.37,284.94h158.25c0,0,9.63-63.75-41.28-87.44c-19.26,7.32-18.34,10.45-34.97,10.8s-40.02-10.8-40.02-10.8
	S107.52,212.83,113.37,284.94z"/>
<circle class="st0" cx="55.49" cy="152.17" r="34.38"/>
<circle class="st0" cx="325.98" cy="152.74" r="34.38"/>
<path class="st0" d="M289.36,251.57H384c0,0,6.13-38.81-26.55-55.83c0,0-12.26,8.85-25.53,8.85c-13.28,0-23.83-3.06-32.68-8.85
	c-11.57,7.15-18.72,14.98-20.09,20.09C280.85,222.64,285.28,225.36,289.36,251.57z"/>
<path class="st0" d="M95.37,251.11H0.73c0,0-6.13-38.81,26.55-55.83c0,0,12.26,8.85,25.53,8.85s23.83-3.06,32.68-8.85
	c11.57,7.15,18.72,14.98,20.09,20.09C103.88,222.17,99.46,224.89,95.37,251.11z"/>
</svg>
