<?xml version="1.0" encoding="utf-8"?>
<!-- Generator: Adobe Illustrator 25.4.1, SVG Export Plug-In . SVG Version: 6.00 Build 0)  -->
<svg version="1.1" id="Calque_2" xmlns="http://www.w3.org/2000/svg" xmlns:xlink="http://www.w3.org/1999/xlink" x="0px" y="0px"
	 viewBox="0 0 269 272" style="enable-background:new 0 0 269 272;" xml:space="preserve">
<style type="text/css">
	.st0{fill:#E0A102;}
	.st1{fill:none;stroke:#F1F0F1;stroke-width:5;stroke-miterlimit:10;}
</style>
<g>
	<path class="st0" d="M111.22,83.51c0,0,7-9.33,17.5-9.33s22.17,2.33,22.17,10.5s0,34.04,0,34.04s0,4.47-4.67,6.8s-17.5,7-24.5,8.17
		c-7,1.17-28.18,4.67-42.68,0s-23.83-8.17-27.33-10.5c-3.5-2.33-11.67-4.67-9.33-16.34c2.33-11.67,5.83-26.84,15.17-45.51
		S72.72,41.5,72.72,41.5s5.83-1.17,12.84,1.17c7,2.33,10.5,2.33,12.84,7c2.33,4.67,2.33,8.17,0,11.67
		c-2.33,3.5-11.67,5.83-11.67,5.83l-4.67,11.67c0,0-1.66,7-1.42,9.33s3.75-4.67,11.92-4.67s17.5,3.5,17.5,3.5L111.22,83.51z"/>
	<g>
		<g>
			<path class="st0" d="M128.44,246V131.59l-9.44-1.94c-3.24-0.74-5.86-1.9-7.85-3.47c-1.99-1.57-2.99-3.89-2.99-6.94v-16.94h20.27
				V94.1c0-8.24,1.32-15.69,3.96-22.36c2.64-6.66,6.43-12.36,11.39-17.08c4.95-4.72,10.99-8.38,18.12-10.97
				c7.13-2.59,15.23-3.89,24.3-3.89c3.52,0,6.78,0.21,9.79,0.62c3.01,0.42,6.13,1.09,9.37,2.01l-0.83,20.97
				c-0.09,1.48-0.49,2.71-1.18,3.68c-0.69,0.97-1.55,1.76-2.57,2.36c-1.02,0.6-2.15,1.04-3.4,1.32c-1.25,0.28-2.48,0.42-3.68,0.42
				c-3.8,0-7.17,0.37-10.14,1.11c-2.96,0.74-5.44,2.06-7.43,3.96c-1.99,1.9-3.49,4.4-4.51,7.5c-1.02,3.1-1.53,7.01-1.53,11.73v6.8
				h33.88v29.44h-32.49V246H128.44z"/>
		</g>
	</g>
</g>
<g id="Calque_3">
</g>
<circle class="st1" cx="135.5" cy="135.5" r="126"/>
</svg>
