<?xml version="1.0" encoding="utf-8"?>
<!-- Generator: Adobe Illustrator 25.4.1, SVG Export Plug-In . SVG Version: 6.00 Build 0)  -->
<svg version="1.1" id="Calque_2" xmlns="http://www.w3.org/2000/svg" xmlns:xlink="http://www.w3.org/1999/xlink" x="0px" y="0px"
	 viewBox="0 0 947 244" style="enable-background:new 0 0 947 244;" xml:space="preserve">
<style type="text/css">
	.st0{fill:#E0A102;}
	.st1{fill:#403C39;}
</style>
<g>
	<g>
		<path class="st0" d="M90.75,214.26V116.2l-8.09-1.67c-2.78-0.63-5.02-1.62-6.72-2.97c-1.71-1.35-2.56-3.33-2.56-5.95V91.1h17.37
			v-7.02c0-7.06,1.13-13.45,3.39-19.16c2.26-5.71,5.51-10.59,9.76-14.64c4.24-4.05,9.42-7.18,15.53-9.4
			c6.11-2.22,13.05-3.33,20.82-3.33c3.01,0,5.81,0.18,8.39,0.54c2.58,0.36,5.25,0.93,8.03,1.73l-0.71,17.97
			c-0.08,1.27-0.42,2.32-1.01,3.15c-0.6,0.83-1.33,1.51-2.2,2.02c-0.87,0.52-1.84,0.89-2.92,1.13c-1.07,0.24-2.12,0.36-3.15,0.36
			c-3.25,0-6.15,0.32-8.69,0.95c-2.54,0.64-4.66,1.77-6.37,3.39c-1.71,1.63-3,3.77-3.87,6.43c-0.87,2.66-1.31,6.01-1.31,10.06v5.83
			h29.04v25.23h-27.85v97.94H90.75z"/>
		<path class="st1" d="M256.64,214.26c-3.49,0-6.13-0.48-7.91-1.43c-1.78-0.95-3.27-2.93-4.46-5.95l-2.62-6.78
			c-3.09,2.62-6.07,4.92-8.93,6.9c-2.86,1.98-5.81,3.67-8.87,5.06c-3.06,1.39-6.31,2.42-9.76,3.09c-3.45,0.67-7.28,1.01-11.48,1.01
			c-5.63,0-10.75-0.74-15.35-2.21c-4.6-1.47-8.51-3.64-11.72-6.51c-3.21-2.87-5.69-6.43-7.44-10.69c-1.75-4.26-2.62-9.17-2.62-14.74
			c0-4.38,1.11-8.87,3.33-13.49c2.22-4.61,6.07-8.81,11.54-12.6c5.47-3.78,12.85-6.94,22.13-9.49c9.28-2.55,20.98-3.82,35.1-3.82
			v-5.28c0-7.29-1.49-12.55-4.46-15.79s-7.2-4.86-12.67-4.86c-4.36,0-7.93,0.48-10.71,1.43c-2.78,0.95-5.26,2.02-7.44,3.21
			c-2.18,1.19-4.3,2.26-6.37,3.21c-2.06,0.95-4.52,1.43-7.38,1.43c-2.54,0-4.7-0.61-6.49-1.84c-1.79-1.23-3.19-2.76-4.22-4.58
			l-6.66-11.54c7.46-6.58,15.73-11.48,24.81-14.7c9.08-3.21,18.82-4.82,29.21-4.82c7.46,0,14.18,1.21,20.17,3.63
			c5.99,2.42,11.07,5.79,15.23,10.11c4.17,4.33,7.36,9.46,9.58,15.41c2.22,5.95,3.33,12.46,3.33,19.52v77.11H256.64z M214.28,191.77
			c4.76,0,8.92-0.83,12.5-2.5c3.57-1.67,7.18-4.36,10.83-8.09v-16.9c-7.38,0-13.45,0.48-18.21,1.44c-4.76,0.96-8.53,2.16-11.3,3.6
			c-2.78,1.44-4.7,3.08-5.77,4.92c-1.07,1.84-1.61,3.84-1.61,6c0,4.24,1.15,7.22,3.45,8.94
			C206.46,190.91,209.83,191.77,214.28,191.77z"/>
		<path class="st1" d="M388.73,120.13c-1.11,1.35-2.18,2.42-3.21,3.21c-1.03,0.79-2.5,1.19-4.4,1.19c-1.83,0-3.47-0.44-4.94-1.31
			c-1.47-0.87-3.11-1.84-4.94-2.92c-1.83-1.07-3.97-2.04-6.43-2.92c-2.46-0.87-5.52-1.31-9.16-1.31c-4.52,0-8.43,0.83-11.72,2.5
			c-3.29,1.67-6.01,4.05-8.15,7.14c-2.14,3.09-3.73,6.88-4.76,11.36c-1.03,4.48-1.55,9.54-1.55,15.17c0,11.82,2.28,20.9,6.84,27.25
			c4.56,6.35,10.85,9.52,18.86,9.52c4.28,0,7.68-0.54,10.17-1.61s4.62-2.26,6.37-3.57c1.74-1.31,3.35-2.52,4.82-3.63
			c1.47-1.11,3.31-1.67,5.53-1.67c2.93,0,5.16,1.07,6.66,3.21l10.71,13.21c-3.81,4.36-7.81,7.91-12.02,10.65
			c-4.21,2.74-8.51,4.88-12.91,6.43c-4.4,1.55-8.83,2.62-13.27,3.21c-4.44,0.59-8.77,0.89-12.97,0.89c-7.54,0-14.74-1.43-21.6-4.28
			c-6.86-2.86-12.89-7-18.09-12.44c-5.2-5.43-9.32-12.12-12.38-20.05c-3.06-7.93-4.58-16.98-4.58-27.13c0-8.88,1.33-17.2,3.99-24.93
			c2.66-7.73,6.58-14.44,11.78-20.11c5.19-5.67,11.62-10.13,19.28-13.39c7.66-3.25,16.52-4.88,26.6-4.88
			c9.68,0,18.17,1.55,25.47,4.64c7.3,3.09,13.88,7.62,19.75,13.57L388.73,120.13z"/>
		<path class="st1" d="M468.22,88.95c8.17,0,15.65,1.27,22.43,3.81c6.78,2.54,12.61,6.23,17.49,11.07
			c4.88,4.84,8.69,10.77,11.42,17.79c2.74,7.02,4.11,14.98,4.11,23.86c0,2.78-0.12,5.04-0.36,6.78c-0.24,1.75-0.67,3.13-1.31,4.17
			c-0.63,1.03-1.49,1.75-2.56,2.14c-1.07,0.4-2.44,0.59-4.11,0.59h-71.16c1.19,10.31,4.32,17.79,9.4,22.43
			c5.08,4.64,11.62,6.96,19.63,6.96c4.28,0,7.97-0.52,11.07-1.55c3.09-1.03,5.85-2.18,8.27-3.45c2.42-1.27,4.64-2.42,6.66-3.45
			c2.02-1.03,4.14-1.55,6.37-1.55c2.93,0,5.16,1.07,6.66,3.21l10.71,13.21c-3.81,4.36-7.91,7.91-12.32,10.65
			c-4.4,2.74-8.93,4.88-13.57,6.43c-4.64,1.55-9.28,2.62-13.92,3.21c-4.64,0.59-9.06,0.89-13.27,0.89c-8.65,0-16.76-1.41-24.34-4.22
			c-7.58-2.82-14.2-7-19.87-12.55c-5.67-5.55-10.16-12.45-13.45-20.71c-3.29-8.25-4.94-17.85-4.94-28.8
			c0-8.25,1.41-16.06,4.22-23.44c2.81-7.38,6.86-13.84,12.14-19.4c5.28-5.55,11.66-9.96,19.16-13.21
			C450.31,90.58,458.78,88.95,468.22,88.95z M468.93,114.42c-7.06,0-12.58,2-16.54,6.01c-3.97,4.01-6.59,9.78-7.85,17.31h46.05
			c0-2.93-0.38-5.79-1.13-8.57c-0.75-2.78-1.98-5.25-3.69-7.44c-1.71-2.18-3.95-3.95-6.72-5.3
			C476.27,115.09,472.9,114.42,468.93,114.42z"/>
		<path class="st1" d="M544.85,214.26V57.62c0-11.88,9.63-21.51,21.51-21.51h15.38v67.83c4.6-4.52,9.82-8.15,15.65-10.89
			c5.83-2.74,12.67-4.11,20.53-4.11c6.43,0,12.38,1.39,17.85,4.17c5.47,2.78,10.19,6.84,14.16,12.2c3.97,5.35,7.08,11.92,9.34,19.69
			c2.26,7.78,3.39,16.62,3.39,26.54c0,9.28-1.29,17.85-3.87,25.7c-2.58,7.85-6.19,14.68-10.83,20.47
			c-4.64,5.79-10.2,10.31-16.66,13.57c-6.47,3.25-13.62,4.88-21.48,4.88c-3.65,0-6.92-0.36-9.82-1.07c-2.9-0.71-5.55-1.73-7.97-3.03
			c-2.42-1.31-4.64-2.87-6.66-4.7c-2.02-1.82-3.99-3.81-5.89-5.95l-1.31,6.19c-0.56,2.54-1.57,4.28-3.03,5.24
			c-1.47,0.95-3.39,1.43-5.77,1.43H544.85z M605.06,116.68c-2.7,0-5.14,0.26-7.32,0.77c-2.18,0.52-4.21,1.25-6.07,2.2
			c-1.87,0.95-3.59,2.16-5.18,3.63c-1.59,1.47-3.17,3.15-4.76,5.06v52.36c2.78,3.09,5.79,5.26,9.04,6.49
			c3.25,1.23,6.66,1.84,10.23,1.84c3.41,0,6.54-0.67,9.4-2.02c2.86-1.35,5.33-3.51,7.44-6.49c2.1-2.98,3.75-6.84,4.94-11.6
			c1.19-4.76,1.79-10.55,1.79-17.37c0-6.5-0.48-11.98-1.43-16.42c-0.95-4.44-2.28-8.03-3.99-10.77c-1.71-2.74-3.75-4.7-6.13-5.89
			S608,116.68,605.06,116.68z"/>
		<path class="st1" d="M737.87,88.95c9.36,0,17.89,1.47,25.58,4.4c7.69,2.94,14.3,7.14,19.81,12.61c5.51,5.47,9.8,12.12,12.85,19.93
			c3.05,7.81,4.58,16.6,4.58,26.36c0,9.84-1.53,18.7-4.58,26.6c-3.06,7.89-7.34,14.6-12.85,20.11c-5.51,5.52-12.12,9.76-19.81,12.73
			c-7.7,2.98-16.22,4.46-25.58,4.46c-9.44,0-18.03-1.49-25.76-4.46c-7.73-2.98-14.4-7.22-19.99-12.73
			c-5.59-5.51-9.92-12.22-12.97-20.11c-3.05-7.89-4.58-16.76-4.58-26.6c0-9.76,1.53-18.54,4.58-26.36
			c3.05-7.81,7.38-14.46,12.97-19.93c5.59-5.47,12.26-9.68,19.99-12.61C719.84,90.42,728.42,88.95,737.87,88.95z M737.87,188.79
			c8.49,0,14.74-2.99,18.74-8.98c4-5.99,6.01-15.09,6.01-27.31c0-12.22-2-21.3-6.01-27.25c-4.01-5.95-10.25-8.92-18.74-8.92
			c-8.73,0-15.11,2.98-19.16,8.92c-4.05,5.95-6.07,15.04-6.07,27.25c0,12.22,2.02,21.32,6.07,27.31
			C722.75,185.8,729.14,188.79,737.87,188.79z"/>
		<path class="st1" d="M843.3,150.48l-39.75-59.62h35.46c2.62,0,4.54,0.34,5.77,1.01c1.23,0.67,2.32,1.81,3.27,3.39l22.02,36.53
			c0.48-1.43,1.07-2.82,1.78-4.17c0.71-1.35,1.51-2.78,2.38-4.28l15.71-27.49c1.03-1.82,2.18-3.11,3.45-3.87
			c1.27-0.75,2.82-1.13,4.64-1.13h33.8l-39.75,57.95l41.41,65.45h-35.46c-2.62,0-4.72-0.63-6.31-1.9c-1.59-1.27-2.9-2.78-3.93-4.52
			l-22.01-37.84c-0.4,1.35-0.87,2.62-1.43,3.81c-0.56,1.19-1.15,2.3-1.79,3.33l-18.09,30.7c-0.95,1.67-2.22,3.15-3.81,4.46
			c-1.59,1.31-3.57,1.96-5.95,1.96h-32.84L843.3,150.48z"/>
	</g>
</g>
<g id="Calque_3">
	<path class="st0" d="M76,75c0,0,6-8,15-8s19,2,19,9s0,29.17,0,29.17s0,3.83-4,5.83s-15,6-21,7s-24.15,4-36.57,0S28,111,25,109
		s-10-4-8-14s5-23,13-39s13-17,13-17s5-1,11,1s9,2,11,6s2,7,0,10s-10,5-10,5l-4,10c0,0-1.43,6-1.21,8C50,81,53,75,60,75s15,3,15,3
		L76,75z"/>
</g>
</svg>
